<?xml version="1.0" standalone="no"?>
<!DOCTYPE svg PUBLIC "-//W3C//DTD SVG 20010904//EN"
 "http://www.w3.org/TR/2001/REC-SVG-20010904/DTD/svg10.dtd">
<svg version="1.0" xmlns="http://www.w3.org/2000/svg"
 width="2000.000000pt" height="1247.000000pt" viewBox="0 0 2000.000000 1247.000000"
 preserveAspectRatio="xMidYMid meet">

<g transform="translate(0.000000,1247.000000) scale(0.100000,-0.100000)"
fill="#000000" stroke="none">
<path d="M8820 10433 c-646 -1120 -1188 -2058 -1203 -2085 l-28 -49 40 3 41 3
1160 2010 c638 1106 1165 2010 1170 2010 5 0 532 -904 1170 -2010 l1160 -2010
41 -3 40 -3 -28 49 c-449 783 -2379 4121 -2383 4121 -3 0 -534 -916 -1180
-2036z"/>
<path d="M20 6675 l0 -1035 9980 0 9980 0 0 1035 0 1035 -9980 0 -9980 0 0
-1035z m5205 495 c174 -25 290 -143 326 -334 14 -73 11 -232 -6 -311 -47 -221
-200 -345 -423 -345 -199 1 -329 100 -388 295 -26 84 -26 305 0 390 62 205
182 298 406 314 8 0 47 -4 85 -9z m4333 -22 c79 -25 157 -94 196 -173 97 -199
64 -526 -68 -672 -76 -85 -211 -130 -355 -120 -236 16 -371 193 -371 487 0
176 43 304 132 393 108 108 291 142 466 85z m-8560 -7 c122 -55 177 -189 138
-334 -25 -92 -85 -166 -173 -215 -13 -8 -6 -23 42 -98 32 -49 89 -131 126
-182 38 -50 69 -96 69 -101 0 -9 -76 -31 -108 -31 -19 0 -118 145 -212 313
l-32 57 -89 0 -89 0 0 -180 0 -180 -57 0 -58 0 -2 491 -2 491 197 -4 c181 -3
201 -5 250 -27z m947 18 c4 -6 4 -31 0 -55 l-6 -45 -112 1 c-62 1 -156 1 -209
1 l-98 -1 0 -160 0 -160 176 0 177 0 -7 -31 c-3 -17 -6 -40 -6 -50 0 -18 -11
-19 -175 -19 l-175 0 0 -122 c0 -68 3 -147 7 -177 l6 -54 214 6 213 5 0 -38
c0 -74 18 -70 -281 -70 l-269 0 -2 486 c-2 267 -1 488 1 490 10 10 540 4 546
-7z m299 -392 c-4 -222 -4 -420 0 -440 l7 -37 180 0 180 0 -3 -47 -3 -48 -240
-3 -240 -2 2 482 c1 266 2 486 2 491 1 4 28 7 62 7 l60 0 -7 -403z m1055 -75
c88 -263 161 -483 161 -490 0 -8 -19 -12 -59 -12 l-59 0 -15 63 c-9 34 -27 94
-40 132 l-24 70 -208 0 -208 0 -25 -65 c-13 -36 -32 -94 -41 -130 l-17 -65
-62 -3 -61 -3 13 38 c8 21 87 236 175 478 89 242 163 446 166 453 3 8 27 12
73 12 l69 0 162 -478z m869 444 c48 -22 62 -34 62 -50 0 -24 -19 -96 -25 -96
-2 0 -34 17 -71 37 -56 31 -79 37 -143 41 -92 5 -147 -8 -203 -51 -162 -121
-169 -528 -11 -666 97 -86 262 -86 396 -1 26 16 49 25 52 20 3 -5 2 -33 -1
-64 -7 -54 -7 -55 -55 -75 -182 -79 -369 -62 -488 45 -97 87 -141 209 -141
389 0 175 37 297 115 384 84 92 166 122 330 118 107 -3 127 -6 183 -31z m367
-43 c0 -40 -2 -260 -3 -488 l-2 -415 -57 0 -58 0 -1 490 -1 491 61 -3 61 -3 0
-72z m1606 -315 l254 -393 3 387 2 387 56 7 c30 3 56 5 58 3 2 -2 1 -223 -2
-491 l-5 -488 -61 0 -61 0 -249 385 c-137 212 -253 388 -257 391 -5 3 -9 -170
-9 -385 l0 -391 -52 0 -53 0 1 483 c0 265 1 485 2 490 1 4 28 7 61 7 l59 0
253 -392z m1210 388 c2 -2 2 -27 1 -56 l-4 -51 -116 1 c-65 1 -161 1 -214 1
l-98 -1 0 -160 0 -160 175 0 175 0 0 -34 c0 -68 5 -66 -181 -66 l-169 0 0
-177 0 -176 215 6 c118 3 217 2 219 -1 2 -4 2 -28 -1 -55 l-6 -47 -271 0 -271
0 -2 490 -2 490 273 0 c150 0 275 -2 277 -4z m620 -20 l45 -17 -9 -59 c-5 -33
-14 -60 -20 -60 -5 0 -38 14 -73 31 -124 61 -249 35 -300 -63 -8 -15 -14 -41
-14 -58 0 -72 45 -112 228 -204 157 -79 214 -147 214 -257 0 -148 -119 -262
-290 -276 -74 -6 -145 6 -236 39 l-58 21 6 61 c3 33 10 64 15 69 5 5 28 -6 53
-25 150 -114 376 -72 388 72 8 94 -13 118 -182 206 -208 108 -269 182 -255
306 13 105 91 191 207 229 40 14 230 3 281 -15z m790 4 c35 -11 74 -26 85 -34
20 -14 21 -20 12 -63 -6 -27 -14 -52 -18 -56 -4 -5 -29 5 -55 22 -60 38 -134
55 -217 49 -127 -8 -209 -77 -249 -209 -18 -61 -21 -88 -17 -202 5 -151 24
-216 83 -284 91 -107 286 -115 429 -18 43 29 50 21 41 -50 l-6 -53 -57 -25
c-81 -36 -165 -51 -249 -43 -252 21 -383 207 -370 526 9 236 101 384 272 439
84 28 231 28 316 1z m1455 -32 c22 -68 233 -628 244 -648 7 -12 11 -8 20 15 6
17 60 154 119 305 59 151 116 299 126 328 l19 52 67 0 68 0 6 -52 c15 -134 85
-870 85 -897 0 -31 -1 -31 -50 -31 -58 0 -56 -5 -65 140 -6 101 -51 552 -61
609 -3 18 -9 30 -13 25 -5 -5 -54 -121 -109 -259 -56 -137 -115 -285 -133
-327 l-31 -78 -48 0 -48 0 -50 128 c-27 70 -84 219 -127 332 -85 223 -82 216
-91 208 -6 -7 -59 -491 -69 -633 -10 -149 -9 -145 -66 -145 -27 0 -49 3 -49 8
0 4 23 221 50 482 28 261 50 478 50 482 0 5 31 8 69 8 l69 0 18 -52z m1086
-310 l3 -363 25 -45 c14 -24 44 -57 67 -74 36 -25 54 -30 120 -34 45 -2 97 1
123 8 57 15 124 80 139 135 7 26 11 164 11 388 l0 347 61 0 61 0 -4 -357 c-4
-341 -5 -361 -26 -414 -28 -69 -59 -113 -110 -150 -67 -49 -116 -62 -237 -63
-93 0 -117 3 -159 22 -71 32 -112 66 -142 118 -49 83 -54 130 -54 502 l0 342
60 0 59 0 3 -362z m1240 -28 c137 -212 253 -386 258 -388 6 -2 10 135 10 381
l0 384 38 7 c82 13 74 66 67 -481 l-7 -488 -61 0 -62 0 -250 387 c-137 213
-253 388 -257 388 -5 0 -8 -175 -8 -390 l0 -390 -50 0 -50 0 0 490 0 491 62
-3 62 -3 248 -385z m784 -100 l-1 -490 -60 0 -60 0 0 490 0 490 61 0 61 0 -1
-490z m832 456 c2 -15 1 -39 -2 -52 l-6 -23 -135 6 -135 6 0 -441 0 -442 -61
0 -61 0 7 173 c4 96 4 295 0 442 l-7 268 -134 -6 c-73 -3 -136 -2 -139 2 -3 5
-2 30 1 55 l7 46 331 -2 331 -3 3 -29z m472 31 c0 -2 72 -216 160 -476 88
-260 160 -479 160 -487 0 -10 -15 -14 -59 -14 l-59 0 -15 63 c-9 34 -27 94
-40 132 l-24 70 -209 0 -209 0 -39 -120 c-21 -66 -40 -126 -42 -132 -2 -9 -24
-13 -63 -13 l-60 0 13 38 c8 20 87 235 175 477 89 242 163 446 166 453 3 8 27
12 75 12 38 0 70 -1 70 -3z m947 -26 c105 -47 161 -149 151 -276 -9 -106 -65
-198 -156 -256 l-42 -27 61 -93 c34 -52 90 -133 125 -180 35 -48 64 -91 64
-97 0 -6 -25 -16 -57 -23 l-56 -13 -27 32 c-14 17 -68 102 -120 187 l-93 155
-88 0 -89 0 0 -180 0 -180 -57 0 -58 0 -1 491 -2 491 197 -4 c180 -3 200 -5
248 -27z m521 -461 l-2 -490 -58 0 -58 0 0 490 0 490 60 0 60 0 -2 -490z m828
-2 l162 -488 -62 0 -62 0 -18 73 c-10 39 -27 99 -39 132 l-22 60 -206 3 c-190
2 -207 1 -214 -15 -23 -57 -64 -183 -70 -215 l-7 -38 -60 0 c-55 0 -60 2 -55
19 3 11 83 232 178 491 l172 471 70 -3 70 -3 163 -487z m756 472 l65 -20 -10
-60 c-5 -33 -14 -60 -20 -60 -5 0 -38 14 -73 31 -124 61 -249 35 -300 -63 -8
-15 -14 -41 -14 -59 0 -70 51 -115 238 -208 147 -74 204 -144 204 -252 0 -148
-119 -262 -290 -276 -74 -6 -145 6 -236 39 l-58 21 6 61 c8 78 17 86 58 51 58
-49 115 -68 203 -69 68 -1 86 3 118 23 64 39 94 109 76 176 -13 46 -48 73
-192 147 -196 101 -258 177 -244 300 13 105 93 194 207 229 52 15 196 10 262
-11z m1037 -15 l63 -29 -7 -50 c-3 -28 -10 -55 -14 -59 -5 -5 -26 2 -48 16
-84 53 -204 72 -295 47 -162 -45 -242 -275 -186 -535 22 -104 79 -180 160
-215 98 -43 241 -24 342 45 20 14 38 20 41 14 4 -5 3 -34 0 -63 l-7 -54 -57
-25 c-168 -75 -364 -55 -479 48 -96 86 -142 216 -142 401 0 225 83 390 230
457 71 32 97 36 220 34 103 -2 122 -6 179 -32z m361 -405 l0 -440 185 0 c141
0 185 -3 185 -12 0 -7 -3 -30 -6 -50 l-7 -38 -237 0 -237 0 -2 490 -1 490 60
0 60 0 0 -440z m-1108 -427 c24 -22 23 -75 -2 -98 -49 -44 -128 -4 -116 59 3
16 11 35 17 43 16 18 79 16 101 -4z"/>
<path d="M5063 7070 c-89 -19 -160 -80 -195 -170 -27 -69 -37 -278 -18 -373
23 -118 94 -213 177 -236 70 -20 182 -14 239 13 60 28 117 91 138 154 28 80
39 208 27 302 -14 113 -25 149 -64 207 -56 84 -186 128 -304 103z"/>
<path d="M9311 7070 c-95 -20 -174 -95 -201 -190 -37 -129 -33 -319 10 -434
22 -58 72 -116 123 -143 49 -25 195 -30 253 -8 137 52 191 176 182 422 -5 139
-22 202 -72 268 -52 68 -187 107 -295 85z"/>
<path d="M698 7063 l-28 -4 0 -199 0 -198 84 -7 c98 -8 141 2 193 48 49 43 73
99 73 171 0 130 -61 187 -209 191 -47 2 -98 1 -113 -2z"/>
<path d="M3042 6988 c-72 -194 -152 -415 -152 -421 0 -4 77 -7 171 -7 133 0
170 3 167 13 -3 6 -38 111 -78 232 -40 121 -76 224 -80 228 -4 5 -17 -15 -28
-45z"/>
<path d="M14546 7023 c-27 -69 -166 -451 -166 -457 0 -3 77 -6 171 -6 133 0
170 3 167 13 -3 6 -38 111 -78 232 -40 121 -76 224 -80 228 -4 5 -11 0 -14
-10z"/>
<path d="M15278 7063 l-28 -4 0 -199 0 -198 84 -7 c98 -8 141 2 193 48 50 44
73 99 73 175 0 130 -59 183 -210 188 -47 1 -97 0 -112 -3z"/>
<path d="M16600 6813 c-45 -126 -85 -234 -87 -240 -4 -10 33 -13 167 -13 l171
0 -6 23 c-26 90 -151 457 -156 457 -3 0 -43 -102 -89 -227z"/>
<path d="M4003 2088 l-1203 -2083 3600 -3 c1980 -1 5220 -1 7200 0 l3600 3
-1196 2070 c-657 1139 -1199 2076 -1203 2083 -5 8 -21 12 -44 10 l-36 -3 1179
-2043 c649 -1124 1180 -2045 1180 -2048 0 -2 -3186 -4 -7080 -4 -3894 0 -7080
2 -7080 4 0 4 2065 3585 2337 4054 l25 42 -39 0 -38 0 -1202 -2082z"/>
</g>
</svg>
